<svg xmlns="http://www.w3.org/2000/svg" width="84.406" height="85.448" viewBox="0 0 84.406 85.448"><g transform="translate(-12280.048 356.224)"><rect width="85.448" height="84.406" rx="10" transform="translate(12364.454 -356.224) rotate(90)" fill="#fff"/><path d="M49.043,23.3,38.814,26.053a2.648,2.648,0,0,1-3.245-1.869L31.438,8.841A2.648,2.648,0,0,1,33.307,5.6L43.535,2.842A2.648,2.648,0,0,1,46.781,4.71l4.131,15.343A2.649,2.649,0,0,1,49.043,23.3Zm-21.3,7.313L35.183,47.35a1.225,1.225,0,0,0,2.239-1L29.894,29.416a4.9,4.9,0,1,0-6.783,0L15.582,46.355a1.225,1.225,0,0,0,2.239,1L25.26,30.612a4.407,4.407,0,0,0,2.484,0ZM26.5,16.089a9.771,9.771,0,0,1,1.862.189L27,11.231,3.819,18.875a2.648,2.648,0,0,0-1.728,3.2l1.451,5.39a2.648,2.648,0,0,0,3.1,1.9l10.144-2.617c-.026-.289-.087-.568-.087-.865A9.811,9.811,0,0,1,26.5,16.089Z" transform="translate(12295.75 -337.584)"/></g></svg>