<?xml version="1.0" encoding="utf-8"?>
<!-- Generator: Adobe Illustrator 28.0.0, SVG Export Plug-In . SVG Version: 6.00 Build 0)  -->
<svg version="1.1" id="Layer_1" xmlns="http://www.w3.org/2000/svg" xmlns:xlink="http://www.w3.org/1999/xlink" x="0px" y="0px"
	 viewBox="0 0 84.4 85.4" style="enable-background:new 0 0 84.4 85.4;" xml:space="preserve">
<style type="text/css">
	.st0{fill:#FFFFFF;}
	.st1{enable-background:new    ;}
	.st2{fill:#101828;}
</style>
<g id="Group_509" transform="translate(816.604 303) rotate(90)">
	<path id="Rectangle_322" class="st0" d="M-293,732.2h65.4c5.5,0,10,4.5,10,10v64.4c0,5.5-4.5,10-10,10H-293c-5.5,0-10-4.5-10-10
		v-64.4C-303,736.7-298.5,732.2-293,732.2z"/>
	<g class="st1">
		<path class="st2" d="M-259.6,761.6L-259.6,761.6l4.2,7.7l17.9-7.3v4.7l-15.8,6.5l15.8,6.5v4.7l-12.7-5.2l5.6,10.4l-2.5,1.5l2.9,5
			l-7.8,4.5l-2.9-5l-3,1.7l-17.1-26.7c0.2-0.1,0.3-0.2,0.5-0.3L-259.6,761.6z M-278.5,769.1l-5-8.7l19.9-11.5l5,8.7L-278.5,769.1z"
			/>
	</g>
</g>
</svg>
