<?xml version="1.0" encoding="utf-8"?>
<!-- Generator: Adobe Illustrator 26.5.0, SVG Export Plug-In . SVG Version: 6.00 Build 0)  -->
<svg version="1.1" id="Layer_1" xmlns="http://www.w3.org/2000/svg" xmlns:xlink="http://www.w3.org/1999/xlink" x="0px" y="0px"
	 viewBox="0 0 205 204" style="enable-background:new 0 0 205 204;" xml:space="preserve">
<style type="text/css">
	.st0{fill:#FFFFFF;}
	.st1{enable-background:new    ;}
	.st2{fill:#101828;}
</style>
<g id="Group_45" transform="translate(937 302.5) rotate(90)">
	<path id="Rectangle_322" class="st0" d="M-292.9,732.3h184c5.5,0,10,4.5,10,10v185c0,5.5-4.5,10-10,10h-184c-5.5,0-10-4.5-10-10
		v-185C-302.9,736.8-298.5,732.3-292.9,732.3z"/>
	<g class="st1">
		<path class="st2" d="M-173.6,882.3h0.7h19.7v13.1h-19.7v1.6v4.9h-4.9h-6.6h-29.5h-6.6h-4.9v-4.9v-1.6h-19.7v-13.1h19.7h0.7
			l5.9-11.2v-62.6c0-14.4,4.8-26.2,16.7-35.1l3-2.2l3,2.2c11.9,8.9,16.7,20.7,16.7,35.1v62.6L-173.6,882.3z M-225.4,875.8h-19.7
			v-13.1l19.7-32.8V875.8z M-153.2,862.6v13.1h-19.7v-45.9L-153.2,862.6z M-200.8,797c-4.5,0-8.2,3.7-8.2,8.2h19.7
			c0-4.5-3.7-8.2-8.2-8.2H-200.8z"/>
	</g>
</g>
</svg>
